<svg width="50" height="50" viewBox="0 0 50 50" fill="none" xmlns="http://www.w3.org/2000/svg">
<g clip-path="url(#clip0_2511_401)">
<path d="M34.1868 21.7436H24.5933C22.5817 21.7436 20.9451 23.3802 20.9451 25.3916V35.1447C20.9451 37.1568 22.5817 38.7934 24.5933 38.7934H34.1868C36.1984 38.7934 37.835 37.1568 37.835 35.1447V25.3916C37.835 23.3802 36.1984 21.7436 34.1868 21.7436ZM36.1113 35.1444C36.1113 36.2059 35.248 37.0689 34.187 37.0689H24.5935C23.5328 37.0689 22.6693 36.2059 22.6693 35.1444V25.3913C22.6693 24.3306 23.5328 23.4676 24.5935 23.4676H34.187C35.2478 23.4676 36.1113 24.3306 36.1113 25.3913V35.1444Z" fill="#4990E2"/>
<path d="M24.8 9.48285H13.993C11.9813 9.48285 10.3447 11.1194 10.3447 13.1316V23.9376C10.3447 25.9497 11.9813 27.5863 13.993 27.5863H21.6114C22.0872 27.5863 22.4734 27.2004 22.4734 26.7243C22.4734 26.2483 22.0872 25.8624 21.6114 25.8624H13.993C12.9322 25.8624 12.0687 24.9994 12.0687 23.9378V13.1316C12.0687 12.0701 12.9319 11.2071 13.993 11.2071H24.8C25.8607 11.2071 26.7242 12.0701 26.7242 13.1316V22.1717C26.7242 22.648 27.1104 23.0337 27.5862 23.0337C28.062 23.0337 28.4482 22.648 28.4482 22.1717V13.1316C28.4482 11.1194 26.8116 9.48285 24.8 9.48285Z" fill="#4990E2"/>
<path d="M3.44817 5.99829C2.97235 5.99829 2.58618 6.38395 2.58618 6.86028V43.7625C2.58618 44.2389 2.97235 44.6245 3.44817 44.6245C3.92399 44.6245 4.31015 44.2391 4.31015 43.7625V6.86028C4.31041 6.38395 3.92424 5.99829 3.44817 5.99829Z" fill="#4990E2"/>
<path d="M43.8674 45.6898H6.1032C5.62737 45.6898 5.24121 46.0757 5.24121 46.5518C5.24121 47.0281 5.62737 47.4138 6.1032 47.4138H43.8674C44.3438 47.4138 44.7294 47.0279 44.7294 46.5518C44.7294 46.0755 44.3433 45.6898 43.8674 45.6898Z" fill="#4990E2"/>
<path d="M46.5519 5.2785C46.0761 5.2785 45.6899 5.66416 45.6899 6.14049V43.8333C45.6899 44.3096 46.0761 44.6952 46.5519 44.6952C47.0278 44.6952 47.4139 44.3098 47.4139 43.8333V6.14049C47.4139 5.66416 47.0278 5.2785 46.5519 5.2785Z" fill="#4990E2"/>
<path d="M43.8673 2.58618H6.174C5.69817 2.58618 5.31201 2.97184 5.31201 3.44817C5.31201 3.9245 5.69817 4.31015 6.174 4.31015H43.8673C44.3436 4.31015 44.7292 3.9245 44.7292 3.44817C44.7292 2.97184 44.3431 2.58618 43.8673 2.58618Z" fill="#4990E2"/>
<path d="M6.03441 0H0.861986C0.386164 0 0 0.385659 0 0.861986V6.03441C0 6.51074 0.386164 6.89639 0.861986 6.89639H6.03441C6.51023 6.89639 6.89639 6.51074 6.89639 6.03441V0.861986C6.89665 0.385659 6.51023 0 6.03441 0ZM5.17242 5.17242H1.72423V1.72423H5.17242V5.17242Z" fill="#4990E2"/>
<path d="M49.1379 0H43.9655C43.4897 0 43.1035 0.385659 43.1035 0.861986V6.03441C43.1035 6.51074 43.4897 6.89639 43.9655 6.89639H49.1379C49.6137 6.89639 49.9999 6.51074 49.9999 6.03441V0.861986C49.9999 0.385659 49.6137 0 49.1379 0ZM48.2759 5.17242H44.8277V1.72423H48.2759V5.17242Z" fill="#4990E2"/>
<path d="M6.03441 43.1036H0.861986C0.386164 43.1036 0 43.4892 0 43.9656V49.138C0 49.6143 0.386164 50 0.861986 50H6.03441C6.51023 50 6.89639 49.6143 6.89639 49.138V43.9656C6.89665 43.4892 6.51023 43.1036 6.03441 43.1036ZM5.17242 48.276H1.72423V44.8278H5.17242V48.276Z" fill="#4990E2"/>
<path d="M49.1379 43.1036H43.9655C43.4897 43.1036 43.1035 43.4892 43.1035 43.9656V49.138C43.1035 49.6143 43.4897 50 43.9655 50H49.1379C49.6137 50 49.9999 49.6143 49.9999 49.138V43.9656C49.9999 43.4892 49.6137 43.1036 49.1379 43.1036ZM48.2759 48.276H44.8277V44.8278H48.2759V48.276Z" fill="#4990E2"/>
</g>
<defs>
<clipPath id="clip0_2511_401">
<rect width="50" height="50" fill="white"/>
</clipPath>
</defs>
</svg>
