<svg width="50" height="50" viewBox="0 0 50 50" fill="none" xmlns="http://www.w3.org/2000/svg">
<g clip-path="url(#clip0_2511_390)">
<path d="M45.7043 4.02201C38.2213 0.427874 25.5467 0.0190166 24.9857 0C24.4532 0 11.7787 0.427874 4.29564 4.02201C3.96546 4.17926 3.75473 4.51205 3.75366 4.87776V25.3396C3.75366 25.9672 4.13399 40.8287 24.6719 49.9186C24.9171 50.0272 25.1969 50.0272 25.4421 49.9186C45.904 40.8287 46.2368 25.9482 46.2463 25.3301V4.87776C46.2452 4.51205 46.0345 4.17926 45.7043 4.02201ZM44.3446 25.3206C44.3446 25.4632 43.9928 39.3929 24.9857 48.0074C6.05467 39.45 5.63631 25.9006 5.6268 25.3301V5.48629C12.6249 2.36757 24.3296 1.92068 24.9857 1.90166C25.6418 1.88264 37.3465 2.36757 44.3446 5.48629V25.3206Z" fill="#4990E2"/>
<path d="M41.2165 8.50046C35.3594 5.64797 25.4613 5.36272 25.0524 5.35321H24.9859C24.539 5.36272 14.6408 5.67649 8.82176 8.50046C8.49158 8.6577 8.28085 8.99049 8.27979 9.3562V25.2636C8.27979 25.758 8.58405 37.4437 24.6341 44.5654C24.8793 44.6741 25.159 44.6741 25.4042 44.5654C41.4638 37.4437 41.7585 25.758 41.7585 25.2541V9.3562C41.7575 8.99049 41.5467 8.6577 41.2165 8.50046ZM10.1434 9.96474C15.5631 7.61619 24.4059 7.27389 24.9859 7.24536C28.6507 7.40154 32.2942 7.88527 35.8729 8.69062L10.1434 24.6456V9.96474ZM39.8283 25.2446C39.8188 25.682 39.486 36.046 24.9859 42.6543C21.1307 40.9989 17.6698 38.5457 14.831 35.4565L39.8283 19.8914V25.2446ZM13.5759 33.9542C11.9594 31.8319 10.8355 29.3765 10.286 26.7659L38.2975 9.40375C38.8109 9.5749 39.3149 9.76506 39.7903 9.96474L39.8283 17.657L13.5759 33.9542Z" fill="#4990E2"/>
</g>
<defs>
<clipPath id="clip0_2511_390">
<rect width="50" height="50" fill="white"/>
</clipPath>
</defs>
</svg>
