<svg width="50" height="50" viewBox="0 0 50 50" fill="none" xmlns="http://www.w3.org/2000/svg">
<g clip-path="url(#clip0_2511_366)">
<path d="M50.0001 40V0.833333C50.0001 0.333333 49.6667 0 49.1667 0H12.5001C12.0001 0 11.6667 0.333333 11.6667 0.833333V49.1667C11.6667 49.6667 12.0001 50 12.5001 50H40.0001C40.2501 50 40.4167 49.9167 40.5834 49.75L49.7501 40.5833C49.8334 40.5 49.8334 40.4167 49.9167 40.3333V40.25C50.0001 40.1667 50.0001 40.0833 50.0001 40ZM13.3334 1.66667H48.3334V39.1667H40.0001C39.5001 39.1667 39.1667 39.5 39.1667 40V48.3333H13.3334V1.66667ZM40.8334 47.1667V40.8333H47.1667L44.0001 44L40.8334 47.1667Z" fill="#4990E2"/>
<path d="M7.41667 0.583333C7.33333 0.25 7 0 6.66667 0C6.33333 0 6 0.25 5.91667 0.583333L3.5 7.83333C3.41667 7.91667 3.33333 8.08333 3.33333 8.25V8.33333V40V44.1667H1.66667V20H0V45C0 45.5 0.333333 45.8333 0.833333 45.8333H3.33333V49.1667C3.33333 49.6667 3.66667 50 4.16667 50H9.16667C9.66667 50 10 49.6667 10 49.1667V40V8.33333C10 8.16667 9.91667 7.91667 9.83333 7.83333L7.41667 0.583333ZM5 9.16667H8.33333V39.1667H5V9.16667ZM6.66667 3.5L8 7.5H5.33333L6.66667 3.5ZM8.33333 48.3333H5V40.8333H8.33333V48.3333Z" fill="#4990E2"/>
<path d="M21.6665 15H23.3332V20.8333C23.3332 21.3333 23.6665 21.6666 24.1665 21.6666H32.4999C32.9999 21.6666 33.3332 21.3333 33.3332 20.8333V15H34.9999C35.3332 15 35.6665 14.8333 35.7499 14.5C35.9165 14.1666 35.8332 13.8333 35.5832 13.5833L28.9165 6.91663C28.5832 6.58329 28.0832 6.58329 27.7499 6.91663L21.0832 13.5833C20.8332 13.8333 20.7499 14.1666 20.9165 14.5C20.9999 14.8333 21.3332 15 21.6665 15ZM28.3332 8.66663L32.9999 13.3333H32.4999C31.9999 13.3333 31.6665 13.6666 31.6665 14.1666V20H24.9999V15H29.9999V13.3333H24.1665H23.6665L28.3332 8.66663Z" fill="#4990E2"/>
<path d="M45 5H40V6.66667H45V5Z" fill="#4990E2"/>
<path d="M45.0001 8.33337H36.6667V10H45.0001V8.33337Z" fill="#4990E2"/>
<path d="M36.6667 25H17.5V26.6667H36.6667V25Z" fill="#4990E2"/>
<path d="M44.1667 29.1666H17.5V30.8333H44.1667V29.1666Z" fill="#4990E2"/>
<path d="M44.1667 33.3334H17.5V35H44.1667V33.3334Z" fill="#4990E2"/>
<path d="M35 37.5H17.5V39.1667H35V37.5Z" fill="#4990E2"/>
<path d="M35 41.6666H17.5V43.3333H35V41.6666Z" fill="#4990E2"/>
<path d="M44.1666 25H38.3333V26.6667H44.1666V25Z" fill="#4990E2"/>
</g>
<defs>
<clipPath id="clip0_2511_366">
<rect width="50" height="50" fill="white"/>
</clipPath>
</defs>
</svg>
