<svg width="50" height="50" viewBox="0 0 50 50" fill="none" xmlns="http://www.w3.org/2000/svg">
<g clip-path="url(#clip0_2511_340)">
<path d="M3.78781 28.1061H27.1969C27.6515 28.1061 27.9545 27.803 27.9545 27.3485V19.7728C27.9545 19.3182 27.5757 19.0153 27.1969 19.0153H3.78781C3.33323 19.0153 3.03027 19.3183 3.03027 19.7728V27.3485C3.03027 27.803 3.33323 28.1061 3.78781 28.1061ZM4.54534 20.5303H26.4393V26.5909H4.54534V20.5303V20.5303Z" fill="#4990E2"/>
<path d="M7.42416 29.4697H4.2424C3.78782 29.4697 3.48486 29.7728 3.48486 30.2273V33.3334C3.48486 33.7879 3.78792 34.0909 4.2424 34.0909H7.3485C7.80308 34.0909 8.10604 33.7878 8.10604 33.3334V30.1515C8.1818 29.7728 7.80298 29.4697 7.42416 29.4697ZM4.99993 32.5758V30.9091H6.59086V32.5758H4.99993Z" fill="#4990E2"/>
<path d="M7.42416 35.8333H4.2424C3.78782 35.8333 3.48486 36.1363 3.48486 36.5908V39.7727C3.48486 40.2272 3.78792 40.5302 4.2424 40.5302H7.3485C7.80308 40.5302 8.10604 40.2271 8.10604 39.7727V36.5908C8.1818 36.1363 7.80298 35.8333 7.42416 35.8333ZM4.99993 39.0151V37.3484H6.59086V39.0151H4.99993Z" fill="#4990E2"/>
<path d="M7.42416 42.197H4.2424C3.78782 42.197 3.48486 42.5001 3.48486 42.9546V46.1364C3.48486 46.591 3.78792 46.894 4.2424 46.894H7.3485C7.80308 46.894 8.10604 46.5909 8.10604 46.1364V42.9546C8.1818 42.5758 7.80298 42.197 7.42416 42.197ZM4.99993 45.3789V43.7122H6.59086V45.3789H4.99993Z" fill="#4990E2"/>
<path d="M13.8637 29.4697H10.6818C10.2273 29.4697 9.92432 29.7728 9.92432 30.2273V33.3334C9.92432 33.7879 10.2274 34.0909 10.6818 34.0909H13.8637C14.3183 34.0909 14.6212 33.7878 14.6212 33.3334V30.1515C14.6213 29.7728 14.2425 29.4697 13.8637 29.4697ZM13.1062 32.5758H11.4395V30.9091H13.1062V32.5758Z" fill="#4990E2"/>
<path d="M13.8637 35.8333H10.6818C10.2273 35.8333 9.92432 36.1363 9.92432 36.5908V39.7727C9.92432 40.2272 10.2274 40.5302 10.6818 40.5302H13.8637C14.3183 40.5302 14.6212 40.2271 14.6212 39.7727V36.5908C14.6213 36.1363 14.2425 35.8333 13.8637 35.8333ZM13.1062 39.0151H11.4395V37.3484H13.1062V39.0151Z" fill="#4990E2"/>
<path d="M13.8637 42.197H10.6818C10.2273 42.197 9.92432 42.5001 9.92432 42.9546V46.1364C9.92432 46.591 10.2274 46.894 10.6818 46.894H13.8637C14.3183 46.894 14.6212 46.5909 14.6212 46.1364V42.9546C14.6213 42.5758 14.2425 42.197 13.8637 42.197ZM13.1062 45.3789H11.4395V43.7122H13.1062V45.3789Z" fill="#4990E2"/>
<path d="M20.3031 29.4697H17.197C16.7424 29.4697 16.4395 29.7728 16.4395 30.2273V33.3334C16.4395 33.7879 16.7425 34.0909 17.197 34.0909H20.3031C20.7577 34.0909 21.0606 33.7878 21.0606 33.3334V30.1515C21.0607 29.7728 20.6819 29.4697 20.3031 29.4697ZM19.5456 32.5758H17.9546V30.9091H19.5456V32.5758Z" fill="#4990E2"/>
<path d="M20.3031 35.8333H17.197C16.7424 35.8333 16.4395 36.1363 16.4395 36.5908V39.7727C16.4395 40.2272 16.7425 40.5302 17.197 40.5302H20.3031C20.7577 40.5302 21.0606 40.2271 21.0606 39.7727V36.5908C21.0607 36.1363 20.6819 35.8333 20.3031 35.8333ZM19.5456 39.0151H17.9546V37.3484H19.5456V39.0151Z" fill="#4990E2"/>
<path d="M20.3031 42.197H17.197C16.7424 42.197 16.4395 42.5001 16.4395 42.9546V46.1364C16.4395 46.591 16.7425 46.894 17.197 46.894H20.3031C20.7577 46.894 21.0606 46.5909 21.0606 46.1364V42.9546C21.0607 42.5758 20.6819 42.197 20.3031 42.197ZM19.5456 45.3789H17.9546V43.7122H19.5456V45.3789Z" fill="#4990E2"/>
<path d="M26.6666 29.4697H23.5605C23.1059 29.4697 22.803 29.7728 22.803 30.2273V33.3334C22.803 33.7879 23.106 34.0909 23.5605 34.0909H26.6666C27.1212 34.0909 27.4242 33.7878 27.4242 33.3334V30.1515C27.4243 29.7728 27.1212 29.4697 26.6666 29.4697ZM25.9091 32.5758H24.3182V30.9091H25.9091V32.5758Z" fill="#4990E2"/>
<path d="M26.6666 35.8333H23.5605C23.1059 35.8333 22.803 36.1363 22.803 36.5908V46.1363C22.803 46.5909 23.106 46.8938 23.5605 46.8938H26.6666C27.1212 46.8938 27.4242 46.5908 27.4242 46.1363V36.5908C27.4243 36.1363 27.1212 35.8333 26.6666 35.8333ZM25.9091 45.3788H24.3182V37.3484H25.9091V45.3788Z" fill="#4990E2"/>
<path d="M49.7727 13.1818L36.2879 0.227291C36.1364 0.0757635 35.9091 0 35.7576 0H9.69693C9.24234 0 8.93939 0.303054 8.93939 0.757535V15.7575H0.757535C0.302953 15.7575 0 16.0606 0 16.515V49.2424C0 49.6969 0.303054 49.9999 0.757535 49.9999C1.21202 49.9999 2.72719 49.9999 49.2424 49.9999C49.6969 49.9999 49.9999 49.6968 49.9999 49.2424C49.9999 46.0605 49.9999 56.1363 49.9999 13.7121C50 13.5606 49.9242 13.2576 49.7727 13.1818ZM36.5152 2.5L47.3485 12.8788H36.5152V2.5ZM29.4697 48.4848H1.51517V17.2728H29.4697V48.4848ZM48.4848 48.4848H30.9849V16.5151C30.9849 16.0606 30.6818 15.7576 30.2273 15.7576H10.4546V1.51517H35V13.7122C35 14.1668 35.3031 14.4697 35.7576 14.4697H48.4848C48.4848 40.4546 48.4848 48.1061 48.4848 48.4848Z" fill="#4990E2"/>
<path d="M29.7726 4.77271H14.5454C14.0908 4.77271 13.7878 5.07576 13.7878 5.53024C13.7878 5.98472 14.0909 6.28778 14.5454 6.28778H29.7726C30.2272 6.28778 30.5302 5.98472 30.5302 5.53024C30.5302 5.07576 30.2272 4.77271 29.7726 4.77271Z" fill="#4990E2"/>
<path d="M29.7726 9.24243H14.5454C14.0908 9.24243 13.7878 9.54549 13.7878 9.99997C13.7878 10.4544 14.0909 10.7575 14.5454 10.7575H29.7726C30.2272 10.7575 30.5302 10.4544 30.5302 9.99997C30.5302 9.54549 30.2272 9.24243 29.7726 9.24243Z" fill="#4990E2"/>
<path d="M39.8484 31.9697C35.8332 31.9697 32.5757 35.2273 32.5757 39.3182C32.5757 43.3333 35.8332 46.6666 39.8484 46.6666C43.8635 46.6666 47.1211 43.4091 47.1211 39.3182C47.1211 35.2274 43.8635 31.9697 39.8484 31.9697ZM39.8484 45.0758C36.6665 45.0758 34.0908 42.5001 34.0908 39.2424C34.0908 35.9848 36.6665 33.4091 39.8484 33.4091C43.0302 33.4091 45.606 35.9849 45.606 39.2424C45.606 42.5 43.0302 45.0758 39.8484 45.0758Z" fill="#4990E2"/>
<path d="M42.1211 39.394C41.7423 39.0152 41.1363 38.7122 40.3029 38.5607V36.5153C40.8333 36.591 41.3635 36.8183 41.8181 37.1213L42.4999 36.1365C41.8181 35.6819 41.0605 35.3789 40.3029 35.3032V34.7728H39.6211V35.3032C38.9394 35.3032 38.3333 35.5305 37.9544 35.9849C37.4999 36.3638 37.2727 36.894 37.2727 37.5001C37.2727 38.1061 37.4242 38.5607 37.803 38.9395C38.1818 39.2426 38.7879 39.5456 39.5455 39.6971V41.8182C38.9394 41.7425 38.2576 41.4394 37.7273 40.9092L36.9697 41.8182C37.7273 42.5 38.6364 42.8788 39.6212 43.0303V43.7879H40.303V43.0303C41.0606 43.0303 41.5909 42.8031 42.0455 42.3486C42.5001 41.9698 42.7272 41.4395 42.7272 40.8334C42.7272 40.2274 42.5 39.6971 42.1211 39.394ZM39.6211 38.3334C39.2423 38.1819 38.9393 38.1061 38.7879 37.9546C38.6364 37.8031 38.5606 37.6515 38.5606 37.3486C38.5606 37.1213 38.6363 36.894 38.8636 36.7425C39.0151 36.5909 39.3182 36.5152 39.6211 36.4394V38.3334ZM41.0606 41.5153C40.8333 41.6668 40.606 41.8183 40.2273 41.8183V39.8487C40.6818 40.0002 40.9848 40.1517 41.1363 40.2275C41.2878 40.379 41.3636 40.6063 41.3636 40.8336C41.3636 41.1365 41.2878 41.3637 41.0606 41.5153Z" fill="#4990E2"/>
<path d="M34.8486 25.9091C34.7729 25.9091 34.8486 25.9091 34.8486 25.9849L31.7425 32.5758C31.591 32.8789 31.6667 33.2576 31.9698 33.4849C32.1971 33.7122 32.5759 33.7122 32.8789 33.5606L38.8637 29.4697L38.9394 29.3939C38.9394 29.3939 39.0152 29.3939 39.0152 29.3182L47.3486 19.5455C48.3334 18.4091 48.1819 16.7424 47.0455 15.7576C46.591 15.3788 45.9849 15.1516 45.3031 15.1516C44.5455 15.1516 43.7879 15.4547 43.2577 16.0607L34.9243 25.8334C34.9244 25.8334 34.9244 25.9091 34.8486 25.9091ZM44.4698 17.0455C44.8486 16.5909 45.6061 16.5152 46.0607 16.894C46.5911 17.3486 46.5911 18.0303 46.2122 18.5607L38.3334 27.7273L36.591 26.2122L44.4698 17.0455ZM37.1971 28.7122L34.3183 30.6818L35.8334 27.5L37.1971 28.7122Z" fill="#4990E2"/>
</g>
<defs>
<clipPath id="clip0_2511_340">
<rect width="50" height="50" fill="white"/>
</clipPath>
</defs>
</svg>
