<svg width="50" height="50" viewBox="0 0 50 50" fill="none" xmlns="http://www.w3.org/2000/svg">
<g clip-path="url(#clip0_2511_328)">
<path fill-rule="evenodd" clip-rule="evenodd" d="M35.1427 7.69004L29.7844 2.33171V6.71282C29.7844 7.24893 30.2249 7.69004 30.7616 7.69004H35.1427ZM34.1405 14.675C29.4088 13.5589 24.6727 16.5256 23.6144 21.2689C22.5738 25.9323 25.4788 30.5706 30.1288 31.6678C34.8227 32.775 39.5238 29.8712 40.631 25.1773C41.7383 20.4834 38.8344 15.7823 34.1405 14.675ZM26.9433 14.7745C31.5833 11.9056 37.6633 13.3412 40.531 17.98C43.3999 22.62 41.9644 28.7 37.3255 31.5684C32.6855 34.4373 26.6055 33.0017 23.7377 28.3628C22.3494 26.1173 21.9688 23.5345 22.4722 21.1423C23.0099 18.585 24.5533 16.2523 26.9433 14.7745ZM35.9516 35.3978V46.4562C35.9516 47.1589 35.3772 47.7334 34.6744 47.7334H2.42271C1.71993 47.7334 1.14549 47.1589 1.14549 46.4562V2.80005C1.14549 2.09727 1.71993 1.52282 2.42271 1.52282H28.6394V6.71338C28.6394 7.88171 29.5933 8.8356 30.7616 8.8356H35.9522V10.9484C35.6622 10.8578 35.3688 10.7778 35.0733 10.7078C31.9066 9.9606 28.1172 10.4712 25.3844 12.2917C22.2144 14.2584 20.1883 17.3928 19.5466 20.8184C18.9799 23.8423 19.496 27.08 21.2433 29.9062C24.3455 34.9239 30.4305 37.1278 35.9522 35.3989L35.9516 35.3978ZM43.0388 37.6084C42.0049 37.495 40.7783 38.1939 40.4316 39.2412C40.2872 39.6767 40.3099 40.1278 40.5344 40.4906L45.0349 47.77C45.3549 48.1978 45.5927 48.4078 46.156 48.4695C47.1899 48.5828 48.4166 47.8839 48.7633 46.8367C48.9077 46.4012 48.8849 45.95 48.6605 45.5873L44.1599 38.3078C43.8399 37.88 43.6027 37.67 43.0388 37.6084ZM42.9822 36.4584C43.8471 36.5023 44.631 36.9 45.1044 37.6656L49.6316 44.9878C50.0438 45.655 50.0972 46.4506 49.8505 47.1945C49.0483 49.6167 45.4355 50.5873 44.091 48.4123L39.5638 41.09C39.1077 40.3523 39.0966 39.4456 39.4322 38.6517L37.1472 34.9562L37.0966 34.9778V46.4556C37.0966 47.7906 36.0094 48.8778 34.6744 48.8778H2.42271C1.08771 48.8778 0.000488281 47.79 0.000488281 46.4556V2.80005C0.000488281 1.46505 1.08827 0.377824 2.42271 0.377824H29.2099C29.3616 0.376712 29.4983 0.433935 29.6072 0.536157L29.6222 0.551157L36.9272 7.85616C37.0355 7.96393 37.0972 8.10782 37.0972 8.26338V11.3662C39.5555 12.3978 41.6099 14.1567 43.0155 16.4217C44.6655 18.8978 45.2505 22.3334 44.771 25.2456C44.306 28.0712 42.8994 30.7306 40.6705 32.7184L42.9827 36.4584H42.9822ZM40.7816 37.08C40.5383 37.235 40.3205 37.4139 40.1294 37.61L37.8705 33.9562C37.7099 33.68 37.3905 33.5856 37.1183 33.7167C34.5288 34.9639 31.5005 35.1462 28.8216 34.3539C26.1377 33.5606 23.8133 31.8556 22.2127 29.3045C20.6072 26.7073 20.1444 23.7245 20.686 20.9434C21.311 17.7323 23.2449 14.9312 26.0388 13.2262C28.7683 11.5534 31.9194 11.1378 34.8127 11.82C37.8399 12.5339 40.4571 14.42 42.0783 17.0762C43.6005 19.56 44.0822 22.3923 43.6427 25.0612C43.1972 27.7695 41.8027 30.3089 39.5872 32.1439C39.3738 32.3023 39.2994 32.5878 39.4044 32.8289L41.7449 36.6256C41.5055 36.7017 40.9888 36.9212 40.781 37.0789L40.7816 37.08ZM31.4822 20.6895C32.2044 21.4117 32.2044 22.5839 31.4822 23.3062C30.3199 24.4684 28.3238 23.6417 28.3238 21.9978C28.3238 20.3539 30.3183 19.5256 31.4822 20.6895ZM28.9894 19.2462C29.9622 18.8267 31.1372 18.6073 32.1344 18.6073C34.8199 18.6073 37.5733 20.0295 40.2055 22.8628C40.4149 23.0878 40.411 23.4334 40.2016 23.6495C37.5377 26.4834 34.8483 27.9006 32.1344 27.9006C29.4488 27.9006 26.696 26.4784 24.0633 23.645C23.8538 23.42 23.8577 23.0745 24.0672 22.8584C24.5422 22.3534 25.0177 21.8934 25.4944 21.4778C26.6549 20.4667 27.8199 19.7228 28.9894 19.2462ZM32.1555 19.7523C34.4133 19.7595 36.6933 20.9267 38.996 23.2539C34.3777 27.9212 29.8905 27.9212 25.2722 23.2539C25.9116 22.6078 26.5577 22.0423 27.2094 21.5662C27.0705 22.5262 27.401 23.4606 28.056 24.1156C29.226 25.2856 31.1222 25.2856 32.2916 24.1156C33.5144 22.8928 33.4494 20.8939 32.1555 19.7523ZM3.90104 11.1878H23.9499C24.266 11.1878 24.5227 10.9317 24.5227 10.615C24.5227 10.2984 24.2666 10.0423 23.9499 10.0423H3.90104C3.58493 10.0423 3.32827 10.2984 3.32827 10.615C3.32827 10.9317 3.58438 11.1878 3.90104 11.1878ZM3.90104 17.4695H18.521C18.8372 17.4695 19.0938 17.2134 19.0938 16.8967C19.0938 16.58 18.8377 16.3239 18.521 16.3239H3.90104C3.58493 16.3239 3.32827 16.58 3.32827 16.8967C3.32827 17.2134 3.58438 17.4695 3.90104 17.4695ZM3.90104 23.7512H17.1477C17.4638 23.7512 17.7205 23.495 17.7205 23.1784C17.7205 22.8617 17.4644 22.6056 17.1477 22.6056H3.90104C3.58493 22.6056 3.32827 22.8617 3.32827 23.1784C3.32827 23.495 3.58438 23.7512 3.90104 23.7512ZM3.90104 30.0328H18.5272C18.8433 30.0328 19.0999 29.7767 19.0999 29.46C19.0999 29.1434 18.8438 28.8873 18.5272 28.8873H3.90104C3.58493 28.8873 3.32827 29.1434 3.32827 29.46C3.32827 29.7767 3.58438 30.0328 3.90104 30.0328ZM3.90104 36.3145H23.9716C24.2877 36.3145 24.5444 36.0584 24.5444 35.7417C24.5444 35.425 24.2883 35.1689 23.9716 35.1689H3.90104C3.58493 35.1689 3.32827 35.425 3.32827 35.7417C3.32827 36.0584 3.58438 36.3145 3.90104 36.3145ZM3.90104 42.5962H33.1972C33.5133 42.5962 33.7699 42.34 33.7699 42.0234C33.7699 41.7067 33.5138 41.4506 33.1972 41.4506H3.90104C3.58493 41.4506 3.32827 41.7067 3.32827 42.0234C3.32827 42.34 3.58438 42.5962 3.90104 42.5962Z" fill="#4990E2" stroke="#4990E2" stroke-width="0.4"/>
</g>
<defs>
<clipPath id="clip0_2511_328">
<rect width="50" height="50" fill="white"/>
</clipPath>
</defs>
</svg>
