<svg width="51" height="50" viewBox="0 0 51 50" fill="none" xmlns="http://www.w3.org/2000/svg">
<g clip-path="url(#clip0_2511_305)">
<path d="M50.4023 0.375C50.309 0.146739 50.0842 0 49.8374 0H0.614193C0.274193 0 0 0.271739 0 0.608696V49.3913C0 49.6359 0.148065 49.8587 0.378387 49.9565C0.455161 49.9837 0.537419 50 0.614193 50C0.773226 50 0.932258 49.9402 1.04742 49.8207L50.2706 1.04348C50.4461 0.86413 50.501 0.603261 50.4023 0.375ZM1.22839 47.9185V41.3641H2.59935C2.93935 41.3641 3.21355 41.0924 3.21355 40.7554C3.21355 40.4185 2.93935 40.1467 2.59935 40.1467H1.22839V36.2826H3.62484C3.96484 36.2826 4.23903 36.0109 4.23903 35.6739C4.23903 35.337 3.96484 35.0652 3.62484 35.0652H1.22839V31.2011H2.59935C2.93935 31.2011 3.21355 30.9293 3.21355 30.5924C3.21355 30.2554 2.93935 29.9837 2.59935 29.9837H1.22839V26.1196H3.62484C3.96484 26.1196 4.23903 25.8478 4.23903 25.5109C4.23903 25.1739 3.96484 24.9022 3.62484 24.9022H1.22839V21.038H2.59935C2.93935 21.038 3.21355 20.7663 3.21355 20.4293C3.21355 20.0924 2.93935 19.8207 2.59935 19.8207H1.22839V15.9565H3.62484C3.96484 15.9565 4.23903 15.6848 4.23903 15.3478C4.23903 15.0109 3.96484 14.7391 3.62484 14.7391H1.22839V10.875H2.59935C2.93935 10.875 3.21355 10.6033 3.21355 10.2663C3.21355 9.92935 2.93935 9.65761 2.59935 9.65761H1.22839V5.79348H3.62484C3.96484 5.79348 4.23903 5.52174 4.23903 5.18478C4.23903 4.84783 3.96484 4.57609 3.62484 4.57609H1.22839V1.21739H48.3513L1.22839 47.9185ZM7.55677 32.7772C7.63355 32.8098 7.71032 32.8261 7.79258 32.8261C7.95161 32.8261 8.11064 32.7663 8.22581 32.6467L32.9416 8.15217C33.1171 7.97826 33.1719 7.71739 33.0732 7.48913C32.98 7.26087 32.7552 7.11413 32.5029 7.11413H7.79258C7.45258 7.11413 7.17839 7.38587 7.17839 7.72283V32.2174C7.17839 32.462 7.32645 32.6848 7.55677 32.7772ZM8.40677 8.33152H31.0223L8.40677 30.7446V8.33152ZM49.3219 15.2554C47.7645 13.6413 45.1761 13.587 43.5474 15.125L15.2506 41.9402C15.1739 42.0109 15.13 42.0978 15.1026 42.1902H15.0971L12.7226 49.1956C12.6513 49.413 12.7006 49.6467 12.8597 49.8098C12.9748 49.9293 13.1394 50 13.3039 50C13.3587 50 13.419 49.9946 13.4739 49.9783L20.6413 47.9402V47.9293C20.7345 47.9022 20.8277 47.8587 20.899 47.7935L49.1958 20.9783C49.98 20.2337 50.4297 19.2283 50.4516 18.1413C50.4735 17.0598 50.0732 16.0326 49.3219 15.2554ZM40.2406 19.9511L41.5897 18.6739L45.5326 22.7609L44.1835 24.038L40.2406 19.9511ZM39.3468 20.7935L40.8932 22.3967L18.0968 44.0054L16.5503 42.4022L39.3468 20.7935ZM15.9361 43.5326L19.3252 47.0435L14.2581 48.4837L15.9361 43.5326ZM20.4932 46.4891L18.9468 44.8859L41.7487 23.2772L43.2952 24.8804L20.4932 46.4891ZM48.3458 20.0978L46.421 21.9185L42.4781 17.8315L44.4029 16.0109C45.5381 14.9348 47.3532 14.9728 48.439 16.0978C48.9655 16.6413 49.2452 17.3587 49.2232 18.1141C49.2013 18.875 48.8942 19.5761 48.3458 20.0978Z" fill="#4990E2" stroke="#4990E2" stroke-width="0.3"/>
</g>
<defs>
<clipPath id="clip0_2511_305">
<rect width="51" height="50" fill="white"/>
</clipPath>
</defs>
</svg>
