<svg width="50" height="50" viewBox="0 0 50 50" fill="none" xmlns="http://www.w3.org/2000/svg">
<g clip-path="url(#clip0_2511_266)">
<path d="M7.02312 7.45653H0.678356C0.444762 7.45653 0.255371 7.26693 0.255371 7.03308V0.681381C0.255371 0.447533 0.444762 0.257935 0.678356 0.257935H7.02312C7.25672 0.257935 7.44611 0.447533 7.44611 0.681381V7.03308C7.44611 7.26693 7.25672 7.45653 7.02312 7.45653ZM1.10134 6.60964H6.60014V1.10483H1.10134V6.60964Z" fill="#4990E2" stroke="#4990E2" stroke-width="0.4"/>
<path d="M7.02312 49.8013H0.678356C0.444762 49.8013 0.255371 49.6117 0.255371 49.3778V43.0261C0.255371 42.7923 0.444762 42.6027 0.678356 42.6027H7.02312C7.25672 42.6027 7.44611 42.7923 7.44611 43.0261V49.3778C7.44611 49.6117 7.25672 49.8013 7.02312 49.8013ZM1.10134 48.9544H6.60014V43.4496H1.10134V48.9544Z" fill="#4990E2" stroke="#4990E2" stroke-width="0.4"/>
<path d="M49.3215 7.45653H42.9767C42.7431 7.45653 42.5537 7.26693 42.5537 7.03308V0.681381C42.5537 0.447533 42.7431 0.257935 42.9767 0.257935H49.3215C49.5551 0.257935 49.7444 0.447533 49.7444 0.681381V7.03308C49.7444 7.26693 49.5551 7.45653 49.3215 7.45653ZM43.3997 6.60964H48.8985V1.10483H43.3997V6.60964Z" fill="#4990E2" stroke="#4990E2" stroke-width="0.4"/>
<path d="M49.3215 49.8013H42.9767C42.7431 49.8013 42.5537 49.6117 42.5537 49.3778V43.0261C42.5537 42.7923 42.7431 42.6027 42.9767 42.6027H49.3215C49.5551 42.6027 49.7444 42.7923 49.7444 43.0261V49.3778C49.7444 49.6117 49.5551 49.8013 49.3215 49.8013ZM43.3997 48.9544H48.8985V43.4496H43.3997V48.9544Z" fill="#4990E2" stroke="#4990E2" stroke-width="0.4"/>
<path d="M39.1699 3.85728C39.1699 3.62333 39.3592 3.43384 39.5929 3.43384C39.8266 3.43384 40.0159 3.62333 40.0159 3.85728C40.0159 4.09124 39.8266 4.28073 39.5929 4.28073C39.3592 4.28073 39.1699 4.09124 39.1699 3.85728ZM36.2091 3.85728C36.2091 3.62333 36.3983 3.43384 36.632 3.43384C36.8657 3.43384 37.055 3.62333 37.055 3.85728C37.055 4.09124 36.8657 4.28073 36.632 4.28073C36.3983 4.28073 36.2091 4.09124 36.2091 3.85728ZM33.2482 3.85728C33.2482 3.62333 33.4374 3.43384 33.6711 3.43384C33.9048 3.43384 34.0941 3.62333 34.0941 3.85728C34.0941 4.09124 33.9048 4.28073 33.6711 4.28073C33.4374 4.28073 33.2482 4.09124 33.2482 3.85728ZM30.2873 3.85728C30.2873 3.62333 30.4766 3.43384 30.7103 3.43384C30.944 3.43384 31.1332 3.62333 31.1332 3.85728C31.1332 4.09124 30.944 4.28073 30.7103 4.28073C30.4766 4.28073 30.2873 4.09124 30.2873 3.85728ZM27.3264 3.85728C27.3264 3.62333 27.5157 3.43384 27.7494 3.43384C27.9831 3.43384 28.1723 3.62333 28.1723 3.85728C28.1723 4.09124 27.9831 4.28073 27.7494 4.28073C27.5157 4.28073 27.3264 4.09124 27.3264 3.85728ZM24.3655 3.85728C24.3655 3.62333 24.5548 3.43384 24.7885 3.43384C25.0222 3.43384 25.2115 3.62333 25.2115 3.85728C25.2115 4.09124 25.0222 4.28073 24.7885 4.28073C24.5548 4.28073 24.3655 4.09124 24.3655 3.85728ZM21.4046 3.85728C21.4046 3.62333 21.5939 3.43384 21.8276 3.43384C22.0613 3.43384 22.2506 3.62333 22.2506 3.85728C22.2506 4.09124 22.0613 4.28073 21.8276 4.28073C21.5939 4.28073 21.4046 4.09124 21.4046 3.85728ZM18.4437 3.85728C18.4437 3.62333 18.633 3.43384 18.8667 3.43384C19.1004 3.43384 19.2897 3.62333 19.2897 3.85728C19.2897 4.09124 19.1004 4.28073 18.8667 4.28073C18.633 4.28073 18.4437 4.09124 18.4437 3.85728ZM15.4828 3.85728C15.4828 3.62333 15.6721 3.43384 15.9058 3.43384C16.1395 3.43384 16.3288 3.62333 16.3288 3.85728C16.3288 4.09124 16.1395 4.28073 15.9058 4.28073C15.6721 4.28073 15.4828 4.09124 15.4828 3.85728ZM12.5219 3.85728C12.5219 3.62333 12.7112 3.43384 12.9449 3.43384C13.1786 3.43384 13.3679 3.62333 13.3679 3.85728C13.3679 4.09124 13.1786 4.28073 12.9449 4.28073C12.7112 4.28073 12.5219 4.09124 12.5219 3.85728ZM9.56104 3.85728C9.56104 3.62333 9.75032 3.43384 9.98402 3.43384C10.2177 3.43384 10.407 3.62333 10.407 3.85728C10.407 4.09124 10.2177 4.28073 9.98402 4.28073C9.75032 4.28073 9.56104 4.09124 9.56104 3.85728Z" fill="#4990E2" stroke="#4990E2" stroke-width="0.5"/>
<path d="M45.7263 39.6385C45.7263 39.4045 45.9156 39.215 46.1493 39.215C46.383 39.215 46.5723 39.4045 46.5723 39.6385C46.5723 39.8724 46.383 40.0619 46.1493 40.0619C45.9156 40.0619 45.7263 39.8724 45.7263 39.6385ZM45.7263 36.6743C45.7263 36.4404 45.9156 36.2509 46.1493 36.2509C46.383 36.2509 46.5723 36.4404 46.5723 36.6743C46.5723 36.9083 46.383 37.0978 46.1493 37.0978C45.9156 37.0978 45.7263 36.9083 45.7263 36.6743ZM45.7263 33.7102C45.7263 33.4762 45.9156 33.2867 46.1493 33.2867C46.383 33.2867 46.5723 33.4762 46.5723 33.7102C46.5723 33.9441 46.383 34.1336 46.1493 34.1336C45.9156 34.1336 45.7263 33.9441 45.7263 33.7102ZM45.7263 30.7461C45.7263 30.5121 45.9156 30.3226 46.1493 30.3226C46.383 30.3226 46.5723 30.5121 46.5723 30.7461C46.5723 30.98 46.383 31.1695 46.1493 31.1695C45.9156 31.1695 45.7263 30.98 45.7263 30.7461ZM45.7263 27.7819C45.7263 27.548 45.9156 27.3585 46.1493 27.3585C46.383 27.3585 46.5723 27.548 46.5723 27.7819C46.5723 28.0159 46.383 28.2054 46.1493 28.2054C45.9156 28.2054 45.7263 28.0159 45.7263 27.7819ZM45.7263 24.8178C45.7263 24.5839 45.9156 24.3944 46.1493 24.3944C46.383 24.3944 46.5723 24.5839 46.5723 24.8178C46.5723 25.0518 46.383 25.2413 46.1493 25.2413C45.9156 25.2413 45.7263 25.0518 45.7263 24.8178ZM45.7263 21.8537C45.7263 21.6197 45.9156 21.4302 46.1493 21.4302C46.383 21.4302 46.5723 21.6197 46.5723 21.8537C46.5723 22.0876 46.383 22.2771 46.1493 22.2771C45.9156 22.2771 45.7263 22.0876 45.7263 21.8537ZM45.7263 18.8896C45.7263 18.6556 45.9156 18.4661 46.1493 18.4661C46.383 18.4661 46.5723 18.6556 46.5723 18.8896C46.5723 19.1235 46.383 19.313 46.1493 19.313C45.9156 19.313 45.7263 19.1235 45.7263 18.8896ZM45.7263 15.9254C45.7263 15.6915 45.9156 15.502 46.1493 15.502C46.383 15.502 46.5723 15.6915 46.5723 15.9254C46.5723 16.1594 46.383 16.3489 46.1493 16.3489C45.9156 16.3489 45.7263 16.1594 45.7263 15.9254ZM45.7263 12.9613C45.7263 12.7273 45.9156 12.5379 46.1493 12.5379C46.383 12.5379 46.5723 12.7273 46.5723 12.9613C46.5723 13.1953 46.383 13.3848 46.1493 13.3848C45.9156 13.3848 45.7263 13.1953 45.7263 12.9613ZM45.7263 9.99718C45.7263 9.76322 45.9156 9.57373 46.1493 9.57373C46.383 9.57373 46.5723 9.76322 46.5723 9.99718C46.5723 10.2311 46.383 10.4206 46.1493 10.4206C45.9156 10.4206 45.7263 10.2311 45.7263 9.99718Z" fill="#4990E2" stroke="#4990E2" stroke-width="0.5"/>
<path d="M3.42773 39.6385C3.42773 39.4045 3.61702 39.215 3.85072 39.215C4.08442 39.215 4.2737 39.4045 4.2737 39.6385C4.2737 39.8724 4.08442 40.0619 3.85072 40.0619C3.61702 40.0619 3.42773 39.8724 3.42773 39.6385ZM3.42773 36.6743C3.42773 36.4404 3.61702 36.2509 3.85072 36.2509C4.08442 36.2509 4.2737 36.4404 4.2737 36.6743C4.2737 36.9083 4.08442 37.0978 3.85072 37.0978C3.61702 37.0978 3.42773 36.9083 3.42773 36.6743ZM3.42773 33.7102C3.42773 33.4762 3.61702 33.2867 3.85072 33.2867C4.08442 33.2867 4.2737 33.4762 4.2737 33.7102C4.2737 33.9441 4.08442 34.1336 3.85072 34.1336C3.61702 34.1336 3.42773 33.9441 3.42773 33.7102ZM3.42773 30.7461C3.42773 30.5121 3.61702 30.3226 3.85072 30.3226C4.08442 30.3226 4.2737 30.5121 4.2737 30.7461C4.2737 30.98 4.08442 31.1695 3.85072 31.1695C3.61702 31.1695 3.42773 30.98 3.42773 30.7461ZM3.42773 27.7819C3.42773 27.548 3.61702 27.3585 3.85072 27.3585C4.08442 27.3585 4.2737 27.548 4.2737 27.7819C4.2737 28.0159 4.08442 28.2054 3.85072 28.2054C3.61702 28.2054 3.42773 28.0159 3.42773 27.7819ZM3.42773 24.8178C3.42773 24.5839 3.61702 24.3944 3.85072 24.3944C4.08442 24.3944 4.2737 24.5839 4.2737 24.8178C4.2737 25.0518 4.08442 25.2413 3.85072 25.2413C3.61702 25.2413 3.42773 25.0518 3.42773 24.8178ZM3.42773 21.8537C3.42773 21.6197 3.61702 21.4302 3.85072 21.4302C4.08442 21.4302 4.2737 21.6197 4.2737 21.8537C4.2737 22.0876 4.08442 22.2771 3.85072 22.2771C3.61702 22.2771 3.42773 22.0876 3.42773 21.8537ZM3.42773 18.8896C3.42773 18.6556 3.61702 18.4661 3.85072 18.4661C4.08442 18.4661 4.2737 18.6556 4.2737 18.8896C4.2737 19.1235 4.08442 19.313 3.85072 19.313C3.61702 19.313 3.42773 19.1235 3.42773 18.8896ZM3.42773 15.9254C3.42773 15.6915 3.61702 15.502 3.85072 15.502C4.08442 15.502 4.2737 15.6915 4.2737 15.9254C4.2737 16.1594 4.08442 16.3489 3.85072 16.3489C3.61702 16.3489 3.42773 16.1594 3.42773 15.9254ZM3.42773 12.9613C3.42773 12.7273 3.61702 12.5379 3.85072 12.5379C4.08442 12.5379 4.2737 12.7273 4.2737 12.9613C4.2737 13.1953 4.08442 13.3848 3.85072 13.3848C3.61702 13.3848 3.42773 13.1953 3.42773 12.9613ZM3.42773 9.99718C3.42773 9.76322 3.61702 9.57373 3.85072 9.57373C4.08442 9.57373 4.2737 9.76322 4.2737 9.99718C4.2737 10.2311 4.08442 10.4206 3.85072 10.4206C3.61702 10.4206 3.42773 10.2311 3.42773 9.99718Z" fill="#4990E2" stroke="#4990E2" stroke-width="0.5"/>
<path d="M39.1699 46.2019C39.1699 45.9679 39.3592 45.7784 39.5929 45.7784C39.8266 45.7784 40.0159 45.9679 40.0159 46.2019C40.0159 46.4358 39.8266 46.6253 39.5929 46.6253C39.3592 46.6253 39.1699 46.4358 39.1699 46.2019ZM36.2091 46.2019C36.2091 45.9679 36.3983 45.7784 36.632 45.7784C36.8657 45.7784 37.055 45.9679 37.055 46.2019C37.055 46.4358 36.8657 46.6253 36.632 46.6253C36.3983 46.6253 36.2091 46.4358 36.2091 46.2019ZM33.2482 46.2019C33.2482 45.9679 33.4374 45.7784 33.6711 45.7784C33.9048 45.7784 34.0941 45.9679 34.0941 46.2019C34.0941 46.4358 33.9048 46.6253 33.6711 46.6253C33.4374 46.6253 33.2482 46.4358 33.2482 46.2019ZM30.2873 46.2019C30.2873 45.9679 30.4766 45.7784 30.7103 45.7784C30.944 45.7784 31.1332 45.9679 31.1332 46.2019C31.1332 46.4358 30.944 46.6253 30.7103 46.6253C30.4766 46.6253 30.2873 46.4358 30.2873 46.2019ZM27.3264 46.2019C27.3264 45.9679 27.5157 45.7784 27.7494 45.7784C27.9831 45.7784 28.1723 45.9679 28.1723 46.2019C28.1723 46.4358 27.9831 46.6253 27.7494 46.6253C27.5157 46.6253 27.3264 46.4358 27.3264 46.2019ZM24.3655 46.2019C24.3655 45.9679 24.5548 45.7784 24.7885 45.7784C25.0222 45.7784 25.2115 45.9679 25.2115 46.2019C25.2115 46.4358 25.0222 46.6253 24.7885 46.6253C24.5548 46.6253 24.3655 46.4358 24.3655 46.2019ZM21.4046 46.2019C21.4046 45.9679 21.5939 45.7784 21.8276 45.7784C22.0613 45.7784 22.2506 45.9679 22.2506 46.2019C22.2506 46.4358 22.0613 46.6253 21.8276 46.6253C21.5939 46.6253 21.4046 46.4358 21.4046 46.2019ZM18.4437 46.2019C18.4437 45.9679 18.633 45.7784 18.8667 45.7784C19.1004 45.7784 19.2897 45.9679 19.2897 46.2019C19.2897 46.4358 19.1004 46.6253 18.8667 46.6253C18.633 46.6253 18.4437 46.4358 18.4437 46.2019ZM15.4828 46.2019C15.4828 45.9679 15.6721 45.7784 15.9058 45.7784C16.1395 45.7784 16.3288 45.9679 16.3288 46.2019C16.3288 46.4358 16.1395 46.6253 15.9058 46.6253C15.6721 46.6253 15.4828 46.4358 15.4828 46.2019ZM12.5219 46.2019C12.5219 45.9679 12.7112 45.7784 12.9449 45.7784C13.1786 45.7784 13.3679 45.9679 13.3679 46.2019C13.3679 46.4358 13.1786 46.6253 12.9449 46.6253C12.7112 46.6253 12.5219 46.4358 12.5219 46.2019ZM9.56104 46.2019C9.56104 45.9679 9.75032 45.7784 9.98402 45.7784C10.2177 45.7784 10.407 45.9679 10.407 46.2019C10.407 46.4358 10.2177 46.6253 9.98402 46.6253C9.75032 46.6253 9.56104 46.4358 9.56104 46.2019Z" fill="#4990E2" stroke="#4990E2" stroke-width="0.5"/>
<path d="M18.2458 37.1933C18.2063 37.1933 18.1668 37.1878 18.1282 37.1766L7.96311 34.2309C7.78228 34.1785 7.65771 34.0127 7.65771 33.8242V21.0594C7.65771 20.9262 7.72021 20.8008 7.82659 20.7208C7.93297 20.6408 8.07076 20.6156 8.19839 20.6525L18.3635 23.5983C18.5443 23.6508 18.6688 23.8166 18.6688 24.0051V36.7699C18.6688 36.903 18.6064 37.0284 18.5 37.1083C18.4258 37.1642 18.3364 37.1933 18.2458 37.1933ZM8.50368 33.5059L17.8228 36.2065V24.3234L8.50368 21.6228V33.5059Z" fill="#4990E2" stroke="#4990E2" stroke-width="0.4"/>
<path d="M18.2458 37.1933C18.1552 37.1933 18.0658 37.1642 17.9916 37.1083C17.8854 37.0284 17.8228 36.9031 17.8228 36.7699V24.0051C17.8228 23.8165 17.9472 23.6508 18.1281 23.5984L28.2932 20.6526C28.4206 20.6156 28.5586 20.6407 28.665 20.7208C28.7713 20.8009 28.8339 20.9262 28.8339 21.0594V25.9778C28.8339 26.1664 28.7093 26.3321 28.5285 26.3845L25.7843 27.1799V34.708C25.7843 34.8966 25.6597 35.0623 25.4789 35.1147L18.3633 37.1768C18.3247 37.1879 18.2852 37.1933 18.2458 37.1933ZM18.6687 24.3234V36.2065L24.9383 34.3897V26.8616C24.9383 26.673 25.0628 26.5072 25.2437 26.4548L27.9879 25.6595V21.6228L18.6687 24.3234Z" fill="#4990E2" stroke="#4990E2" stroke-width="0.4"/>
<path d="M18.2458 24.4285C18.2061 24.4285 18.1666 24.4229 18.1282 24.4118L7.96311 21.466C7.78228 21.4136 7.65771 21.2477 7.65771 21.0593C7.65771 20.8709 7.78218 20.705 7.96311 20.6526L18.1282 17.7069C18.205 17.6846 18.2866 17.6846 18.3635 17.7069L28.5285 20.6526C28.7094 20.705 28.8339 20.8709 28.8339 21.0593C28.8339 21.2477 28.7094 21.4136 28.5285 21.466L18.3635 24.4118C18.325 24.423 18.2854 24.4285 18.2458 24.4285ZM9.60196 21.0594L18.2459 23.5644L26.8898 21.0594L18.2459 18.5545L9.60196 21.0594Z" fill="#4990E2" stroke="#4990E2" stroke-width="0.4"/>
<path d="M33.3085 39.5679C33.2691 39.5679 33.2296 39.5624 33.1909 39.5511L25.2436 37.2481C25.0628 37.1957 24.9382 37.0299 24.9382 36.8414V26.8616C24.9382 26.7284 25.0007 26.6031 25.1071 26.5232C25.2135 26.4431 25.351 26.4177 25.4789 26.4549L33.4262 28.758C33.6071 28.8104 33.7316 28.9763 33.7316 29.1647V39.1444C33.7316 39.2776 33.6689 39.4029 33.5627 39.4829C33.4884 39.5387 33.3991 39.5679 33.3085 39.5679ZM25.7842 36.5232L32.8855 38.5809V29.4828L25.7842 27.425V36.5232Z" fill="#4990E2" stroke="#4990E2" stroke-width="0.4"/>
<path d="M33.3085 39.5678C33.218 39.5678 33.1285 39.5387 33.0544 39.4828C32.9481 39.4028 32.8855 39.2775 32.8855 39.1443V29.1646C32.8855 28.9762 33.01 28.8103 33.1909 28.7579L41.1381 26.4548C41.2657 26.4175 41.4036 26.4431 41.5099 26.5231C41.6162 26.603 41.6788 26.7283 41.6788 26.8615V36.8413C41.6788 37.0299 41.5544 37.1956 41.3734 37.248L33.4262 39.5511C33.3875 39.5623 33.3478 39.5678 33.3085 39.5678ZM33.7315 29.4828V38.5808L40.8327 36.5231V27.4249L33.7315 29.4828Z" fill="#4990E2" stroke="#4990E2" stroke-width="0.4"/>
<path d="M33.3085 29.5881C33.2689 29.5881 33.2293 29.5825 33.1909 29.5714L25.2436 27.2683C25.0628 27.2159 24.9382 27.05 24.9382 26.8615C24.9382 26.673 25.0627 26.5072 25.2436 26.4548L33.1909 24.1518C33.2677 24.1296 33.3493 24.1296 33.4262 24.1518L41.3734 26.4548C41.5543 26.5072 41.6788 26.673 41.6788 26.8615C41.6788 27.05 41.5543 27.2159 41.3734 27.2683L33.4262 29.5714C33.3877 29.5825 33.348 29.5881 33.3085 29.5881ZM26.8825 26.8615L33.3086 28.7239L39.7347 26.8615L33.3086 24.9993L26.8825 26.8615Z" fill="#4990E2" stroke="#4990E2" stroke-width="0.4"/>
<path d="M34.2115 19.0346C34.0043 19.0007 33.8563 18.8218 33.8563 18.6185C33.8553 18.5952 33.8574 18.5719 33.8616 18.5487C33.8986 18.3179 34.1154 18.1612 34.347 18.1983C34.5532 18.2321 34.7013 18.411 34.7023 18.6143C34.7023 18.6376 34.7001 18.6609 34.6958 18.6842C34.6631 18.8917 34.4833 19.0399 34.2793 19.0399C34.2571 19.0399 34.2337 19.0377 34.2115 19.0346ZM36.5814 18.4449C36.5572 18.3888 36.5454 18.3316 36.5444 18.2755C36.5444 18.1114 36.6385 17.9558 36.7971 17.886C37.0108 17.7917 37.2603 17.8881 37.3545 18.1019C37.3787 18.157 37.3905 18.2152 37.3905 18.2713C37.3915 18.4343 37.2974 18.5899 37.1388 18.6609C37.0837 18.6852 37.0256 18.6969 36.9685 18.6969C36.8056 18.6969 36.6512 18.6026 36.5814 18.4449ZM31.5541 17.7462C31.4621 17.6626 31.4156 17.5483 31.4167 17.4329C31.4167 17.3312 31.4526 17.2296 31.5266 17.1481C31.6842 16.9756 31.9518 16.9639 32.1241 17.1206C32.2161 17.2042 32.2626 17.3196 32.2626 17.435C32.2616 17.5366 32.2256 17.6382 32.1516 17.7187C32.0681 17.8108 31.9538 17.8574 31.8396 17.8574C31.7372 17.8574 31.6357 17.8203 31.5541 17.7462ZM38.8021 16.8697C38.6783 16.7882 38.6107 16.6537 38.6107 16.5161C38.6096 16.4367 38.6318 16.3552 38.6793 16.2832H38.6782C38.8062 16.0874 39.0684 16.0323 39.2641 16.1604C39.3878 16.2419 39.4556 16.3764 39.4565 16.514C39.4565 16.5934 39.4343 16.6749 39.3878 16.7469C39.3878 16.7469 39.3878 16.7469 39.3867 16.7469C39.3064 16.8707 39.171 16.9385 39.0325 16.9385C38.9533 16.9385 38.8728 16.9163 38.8021 16.8697ZM30.0294 15.2161C30.0199 15.1812 30.0156 15.1452 30.0156 15.1103C30.0156 14.9218 30.1415 14.7503 30.3329 14.7006C30.5592 14.6424 30.7897 14.7779 30.8478 15.0044C30.8574 15.0393 30.8616 15.0753 30.8616 15.1103C30.8616 15.2987 30.7359 15.4713 30.5444 15.521C30.5095 15.5295 30.4735 15.5337 30.4386 15.5337C30.2503 15.5337 30.078 15.4077 30.0294 15.2161ZM39.3816 13.914C39.3816 13.6801 39.5708 13.4906 39.8045 13.4906C40.0382 13.4906 40.2275 13.6801 40.2275 13.914C40.2275 14.148 40.0382 14.3375 39.8045 14.3375C39.5708 14.3375 39.3816 14.148 39.3816 13.914ZM30.3984 12.7993C30.2218 12.74 30.1108 12.5759 30.1097 12.3992C30.1097 12.3536 30.1171 12.3081 30.1321 12.2637C30.2071 12.0413 30.4461 11.9217 30.6681 11.9969C30.8447 12.0562 30.9557 12.2202 30.9568 12.397C30.9568 12.4415 30.9494 12.4881 30.9346 12.5325C30.8752 12.7093 30.7104 12.8215 30.5326 12.8215C30.4882 12.8215 30.4438 12.8141 30.3984 12.7993ZM38.8359 11.8042C38.8 11.7396 38.782 11.6687 38.782 11.5988C38.783 11.4496 38.8613 11.3056 38.9998 11.2283C39.2039 11.1151 39.4609 11.1881 39.5751 11.3924C39.611 11.458 39.629 11.529 39.629 11.5988C39.6279 11.747 39.5497 11.891 39.4112 11.9683C39.3456 12.0043 39.2758 12.0223 39.206 12.0223C39.0579 12.0223 38.913 11.9439 38.8359 11.8042ZM31.7614 10.4407C31.7001 10.3634 31.6706 10.2713 31.6694 10.1803C31.6694 10.0543 31.7245 9.93046 31.8302 9.84577C32.0131 9.70074 32.2796 9.73144 32.4245 9.91564C32.4859 9.99292 32.5154 10.085 32.5154 10.1761C32.5165 10.302 32.4614 10.4259 32.3557 10.5095C32.2774 10.572 32.1855 10.6016 32.0935 10.6016C31.9686 10.6016 31.8449 10.5466 31.7614 10.4407ZM37.07 10.0744C36.9262 9.99821 36.8447 9.85106 36.8447 9.69968C36.8447 9.63299 36.8606 9.56524 36.8934 9.50278C37.0033 9.29529 37.2592 9.21695 37.4654 9.32599C37.6093 9.40221 37.6907 9.54936 37.6907 9.70074C37.6907 9.76743 37.6748 9.83518 37.641 9.8987C37.5659 10.0416 37.4188 10.1242 37.2677 10.1242C37.2011 10.1242 37.1334 10.1083 37.07 10.0744ZM34.1884 9.20848C34.1873 9.19578 34.1863 9.18308 34.1863 9.17037C34.1863 8.95336 34.3512 8.7681 34.5712 8.74798C34.8038 8.72681 35.009 8.89831 35.0301 9.1312C35.0323 9.14391 35.0323 9.15661 35.0323 9.16931C35.0334 9.38633 34.8673 9.57159 34.6473 9.5917C34.6346 9.59276 34.622 9.59382 34.6093 9.59382C34.3924 9.59382 34.2085 9.42867 34.1884 9.20848Z" fill="#4990E2" stroke="#4990E2" stroke-width="0.5"/>
</g>
<defs>
<clipPath id="clip0_2511_266">
<rect width="50" height="50" fill="white"/>
</clipPath>
</defs>
</svg>
